HIERARCHY
ROOT Hips
{
  OFFSET 41.7364 100.235 5.09538
  CHANNELS 6 Xposition Yposition Zposition Zrotation Xrotation Yrotation
  JOINT spine
  {
    OFFSET 0 8.81705 0.507024
    CHANNELS 3 Zrotation Xrotation Yrotation
    JOINT spine1
    {
      OFFSET 0 10.7766 0
      CHANNELS 3 Zrotation Xrotation Yrotation
      JOINT spine2
      {
        OFFSET 0 10.3259 0
        CHANNELS 3 Zrotation Xrotation Yrotation
        JOINT Neck
        {
          OFFSET 0 26.511 1.26395
          CHANNELS 3 Zrotation Xrotation Yrotation
          JOINT Head
          {
            OFFSET 0 8.00966 0
            CHANNELS 3 Zrotation Xrotation Yrotation
            End Site
            {
              OFFSET 0 19.3879 -6.39386
            }
          }
        }
        JOINT RightShoulder
        {
          OFFSET -4.34795 11.1512 -0.605422
          CHANNELS 3 Zrotation Xrotation Yrotation
          JOINT RightArm
          {
            OFFSET 0 14.6258 0
            CHANNELS 3 Zrotation Xrotation Yrotation
            JOINT RightArmRoll
            {
              OFFSET 0 7.3834 0
              CHANNELS 3 Zrotation Xrotation Yrotation
              JOINT RightForeArm
              {
                OFFSET 0 21.5052 0
                CHANNELS 3 Zrotation Xrotation Yrotation
                JOINT RightForeArmRoll
                {
                  OFFSET 0 8.28532 0
                  CHANNELS 3 Zrotation Xrotation Yrotation
                  JOINT RightHand
                  {
                    OFFSET 0 16.6268 0
                    CHANNELS 3 Zrotation Xrotation Yrotation
                    End Site
                    {
                      OFFSET 0 0 0
                    }
                  }
                }
              }
            }
          }
        }
        JOINT LeftShoulder
        {
          OFFSET 4.34795 11.1512 -0.605422
          CHANNELS 3 Zrotation Xrotation Yrotation
          JOINT LeftArm
          {
            OFFSET 0 14.6258 0
            CHANNELS 3 Zrotation Xrotation Yrotation
            JOINT LeftArmRoll
            {
              OFFSET 0 7.3834 0
              CHANNELS 3 Zrotation Xrotation Yrotation
              JOINT LeftForeArm
              {
                OFFSET 0 21.5052 0
                CHANNELS 3 Zrotation Xrotation Yrotation
                JOINT LeftForeArmRoll
                {
                  OFFSET 0 8.28532 0
                  CHANNELS 3 Zrotation Xrotation Yrotation
                  JOINT LeftHand
                  {
                    OFFSET 0 16.6268 0
                    CHANNELS 3 Zrotation Xrotation Yrotation
                    End Site
                    {
                      OFFSET 0 0 0
                    }
                  }
                }
              }
            }
          }
        }
      }
    }
  }
  JOINT RightUpLeg
  {
    OFFSET -7.8151 -1.43309 -1.20217
    CHANNELS 3 Zrotation Xrotation Yrotation
    JOINT RightUpLegRoll
    {
      OFFSET 0 19.4959 0
      CHANNELS 3 Zrotation Xrotation Yrotation
      JOINT RightLeg
      {
        OFFSET 0 -24.1427 0
        CHANNELS 3 Zrotation Xrotation Yrotation
        JOINT RightLegRoll
        {
          OFFSET 0 24.2217 0
          CHANNELS 3 Zrotation Xrotation Yrotation
          JOINT RightFoot
          {
            OFFSET 0 20.1605 0
            CHANNELS 3 Zrotation Xrotation Yrotation
            JOINT RightToeBase
            {
              OFFSET 0 16.8532 0
              CHANNELS 3 Zrotation Xrotation Yrotation
              End Site
              {
                OFFSET 0.00714343 8.16187 -0.94078
              }
            }
          }
        }
      }
    }
  }
  JOINT LeftUpLeg
  {
    OFFSET 7.8151 -1.43309 -1.20217
    CHANNELS 3 Zrotation Xrotation Yrotation
    JOINT LeftUpLegRoll
    {
      OFFSET 0 19.496 0
      CHANNELS 3 Zrotation Xrotation Yrotation
      JOINT LeftLeg
      {
        OFFSET 0 24.1426 0
        CHANNELS 3 Zrotation Xrotation Yrotation
        JOINT LeftLegRoll
        {
          OFFSET 0 24.4456 0
          CHANNELS 3 Zrotation Xrotation Yrotation
          JOINT LeftFoot
          {
            OFFSET 0 19.9366 0
            CHANNELS 3 Zrotation Xrotation Yrotation
            JOINT LeftToeBase
            {
              OFFSET 0 16.8532 0
              CHANNELS 3 Zrotation Xrotation Yrotation
              End Site
              {
                OFFSET -0.0320138 8.16187 -0.94078
              }
            }
          }
        }
      }
    }
  }
}
MOTION
Frames: 6
Frame Time: 0.00208333
45.506 100.022 6.19587 2.02001 -1.63329 4.19988 -0.102466 -2.20359 -0.00650667 -0.212911 -0.39497 -0.0201687 -0.212932 1.2501 -0.0165707 -7.0478 23.4167 3.36401 -0.078473 -3.65085 1.03237 60.0809 -3.42767 -2.25366 114.982 17.3337 14.3111 7.95139e-016 -3.18055e-015 1.59028e-015 10.0684 0.0794387 -0.949731 1.41553e-005 -3.61265e-006 -3.08715 8.02893 -4.95147 0.697672 -62.3637 -5.08172 3.38808 -110.831 13.9074 -6.23962 -1.37155e-005 -1.30677e-007 -8.60605e-007 -10.596 1.52928 0.639622 9.05021e-006 -5.56907e-006 3 -8.02893 -4.95146 -0.697693 175.547 2.54744 1.68433 180 7.01556e-015 178.963 177.228 13.2604 179.779 6.54413e-007 -3.04859e-006 0.23179 -21.8227 72.0233 23.5414 8.12315 25.2374 -3.47967 -178.765 -0.161233 3.51298 4.54188e-006 -4.6773e-006 -1.09932 -1.75474 -8.29351 0.245174 -1.36169e-006 -1.87513e-007 -0.124544 19.7894 70.1357 -21.4697 -8.12846 25.2332 3.48418 
45.5111 100.021 6.21246 2.02276 -1.63634 4.20437 -0.102038 -2.20035 -0.00693066 -0.212066 -0.389172 -0.019858 -0.212094 1.25589 -0.0162727 -7.02743 23.4247 3.3539 -0.111445 -3.66973 1.0238 60.0801 -3.43476 -2.25772 114.971 17.3596 14.3011 3.97569e-015 6.36111e-015 4.77083e-015 10.0695 0.0794384 -0.949095 1.41553e-005 -3.61265e-006 -3.08701 8.02893 -4.95147 0.697672 -62.3684 -5.07522 3.38452 -110.833 13.9265 -6.2214 -1.37155e-005 -1.30677e-007 -8.60605e-007 -10.6029 1.54209 0.640701 9.05021e-006 -5.56907e-006 3 -8.02893 -4.95146 -0.697693 175.544 2.54484 1.68515 180 7.01556e-015 178.963 177.23 13.2611 179.779 6.54413e-007 -3.04859e-006 0.23179 -21.8204 72.0232 23.5411 8.12315 25.2374 -3.47967 -178.769 -0.166173 3.51626 4.54188e-006 -4.6773e-006 -1.09932 -1.7529 -8.28786 0.245086 -1.36169e-006 -1.87513e-007 -0.124544 19.7851 70.1322 -21.4645 -8.12846 25.2332 3.48418 
45.5165 100.024 6.20384 2.02562 -1.63978 4.20898 -0.101581 -2.19701 -0.00730182 -0.211181 -0.38318 -0.0194009 -0.211218 1.26189 -0.0158288 -7.00622 23.4332 3.34327 -0.146047 -3.68955 1.01473 60.079 -3.44244 -2.26209 114.961 17.3854 14.2912 4.77083e-015 -3.18055e-015 1.59028e-015 10.0705 0.0794381 -0.948498 1.41553e-005 -3.61265e-006 -3.08686 8.02893 -4.95147 0.697672 -62.3732 -5.06826 3.38069 -110.834 13.9456 -6.20326 -1.37155e-005 -1.30677e-007 -8.60605e-007 -10.6098 1.55451 0.641745 9.05021e-006 -5.56907e-006 3 -8.02893 -4.95146 -0.697693 175.541 2.54169 1.68594 180 7.01556e-015 178.963 177.232 13.2617 179.779 6.54413e-007 -3.04859e-006 0.23179 -21.818 72.0231 23.541 8.12315 25.2374 -3.47967 -178.773 -0.171791 3.51966 4.54188e-006 -4.6773e-006 -1.09932 -1.75097 -8.28191 0.244985 -1.36169e-006 -1.87513e-007 -0.124544 19.7809 70.1286 -21.4591 -8.12846 25.2332 3.48418 
45.5099 100.024 6.22579 2.02857 -1.64349 4.21366 -0.101105 -2.19358 -0.00763601 -0.210267 -0.377052 -0.0188414 -0.210315 1.26801 -0.0152827 -6.98442 23.4419 3.33228 -0.181793 -3.71004 1.00531 60.0776 -3.45053 -2.26668 114.951 17.4112 14.2815 -2.38542e-015 3.18055e-015 -0 10.0715 0.0794379 -0.947928 1.41553e-005 -3.61265e-006 -3.08672 8.02893 -4.95147 0.697672 -62.3781 -5.06098 3.37668 -110.836 13.9646 -6.18518 -1.37155e-005 -1.30677e-007 -8.60605e-007 -10.6167 1.56667 0.642762 9.05021e-006 -5.56907e-006 3 -8.02893 -4.95146 -0.697693 175.537 2.53817 1.68671 180 7.01556e-015 178.963 177.233 13.2623 179.779 6.54413e-007 -3.04859e-006 0.23179 -21.8157 72.0231 23.5409 8.12315 25.2374 -3.47967 -178.778 -0.177883 3.52314 4.54188e-006 -4.6773e-006 -1.09932 -1.74898 -8.27575 0.244873 -1.36169e-006 -1.87513e-007 -0.124544 19.7766 70.125 -21.4536 -8.12846 25.2332 3.48418 
45.5077 100.022 6.21859 2.03156 -1.64736 4.21839 -0.100617 -2.19012 -0.00794906 -0.209337 -0.370847 -0.0182233 -0.209397 1.27422 -0.0146783 -6.9623 23.4508 3.32107 -0.218195 -3.7309 0.995691 60.0761 -3.45885 -2.2714 114.94 17.4369 14.2718 -1.59028e-015 6.36111e-015 1.59028e-015 10.0724 0.0794377 -0.947373 1.41553e-005 -3.61265e-006 -3.08658 8.02893 -4.95147 0.697672 -62.3831 -5.05352 3.37257 -110.838 13.9837 -6.16714 -1.37155e-005 -1.30677e-007 -8.60605e-007 -10.6235 1.57867 0.643765 9.05021e-006 -5.56907e-006 3 -8.02893 -4.95146 -0.697693 175.534 2.53443 1.68747 180 7.01556e-015 178.963 177.235 13.2628 179.779 6.54413e-007 -3.04859e-006 0.23179 -21.8133 72.023 23.5409 8.12315 25.2374 -3.47967 -178.782 -0.184247 3.52667 4.54188e-006 -4.6773e-006 -1.09932 -1.74696 -8.26947 0.244757 -1.36169e-006 -1.87513e-007 -0.124544 19.7723 70.1214 -21.4481 -8.12846 25.2332 3.48418 
45.5053 100.023 6.22662 2.03457 -1.65127 4.22313 -0.100127 -2.18664 -0.00825683 -0.208403 -0.364623 -0.0175906 -0.208475 1.28044 -0.0140592 -6.94008 23.4597 3.30982 -0.254767 -3.75186 0.98602 60.0745 -3.46724 -2.27614 114.93 17.4626 14.2621 -1.66979e-014 1.27222e-014 -3.18055e-015 10.0733 0.0794374 -0.946822 1.41553e-005 -3.61265e-006 -3.08644 8.02893 -4.95147 0.697672 -62.388 -5.04602 3.36843 -110.84 14.0027 -6.1491 -1.37155e-005 -1.30677e-007 -8.60605e-007 -10.6304 1.59064 0.644765 9.05021e-006 -5.56907e-006 3 -8.02893 -4.95146 -0.697693 175.531 2.53063 1.68823 180 7.01556e-015 178.963 177.237 13.2633 179.779 6.54413e-007 -3.04859e-006 0.23179 -21.8109 72.023 23.5409 8.12315 25.2374 -3.47967 -178.786 -0.190678 3.5302 4.54188e-006 -4.6773e-006 -1.09932 -1.74493 -8.26315 0.244638 -1.36169e-006 -1.87513e-007 -0.124544 19.768 70.1178 -21.4426 -8.12846 25.2332 3.48418 
